<svg xmlns="http://www.w3.org/2000/svg" viewBox="0 0 800 550" font-family="system-ui, -apple-system, sans-serif">
  <defs>
    <filter id="shadow" x="-20%" y="-20%" width="140%" height="140%">
      <feDropShadow dx="2" dy="3" stdDeviation="4" flood-opacity="0.12"/>
    </filter>
    <linearGradient id="cardBg" x1="0%" y1="0%" x2="100%" y2="100%">
      <stop offset="0%" style="stop-color:#1a202c"/>
      <stop offset="100%" style="stop-color:#2d3748"/>
    </linearGradient>
    <linearGradient id="headerGrad" x1="0%" y1="0%" x2="100%" y2="100%">
      <stop offset="0%" style="stop-color:#38b2ac"/>
      <stop offset="100%" style="stop-color:#319795"/>
    </linearGradient>
    <linearGradient id="easyGrad" x1="0%" y1="0%" x2="100%" y2="100%">
      <stop offset="0%" style="stop-color:#48bb78"/>
      <stop offset="100%" style="stop-color:#38a169"/>
    </linearGradient>
  </defs>

  <!-- Main card background -->
  <rect x="20" y="20" width="760" height="510" rx="20" fill="url(#cardBg)" filter="url(#shadow)"/>

  <!-- Header -->
  <text x="400" y="55" text-anchor="middle" font-size="26" font-weight="bold" fill="white">Soft Adjective Declension</text>
  <text x="400" y="80" text-anchor="middle" font-size="14" fill="#a0aec0">Model: jarní (spring) • Dictionary form ends in -í • MUCH EASIER!</text>

  <!-- Good news banner -->
  <rect x="150" y="95" width="500" height="40" rx="10" fill="url(#easyGrad)" filter="url(#shadow)"/>
  <text x="400" y="120" text-anchor="middle" font-size="14" font-weight="bold" fill="white">Great news: Most endings are the same across all genders!</text>

  <!-- Main content - Two columns -->

  <!-- SINGULAR -->
  <rect x="40" y="150" width="350" height="330" rx="12" fill="#2d3748" filter="url(#shadow)"/>
  <rect x="40" y="150" width="350" height="40" rx="12" fill="url(#headerGrad)"/>
  <rect x="40" y="175" width="350" height="15" fill="url(#headerGrad)"/>
  <text x="215" y="178" text-anchor="middle" font-size="15" font-weight="bold" fill="white">SINGULAR</text>

  <!-- Singular headers -->
  <text x="70" y="215" font-size="11" font-weight="bold" fill="#a0aec0">CASE</text>
  <text x="150" y="215" text-anchor="middle" font-size="10" font-weight="bold" fill="#90cdf4">M.An</text>
  <text x="210" y="215" text-anchor="middle" font-size="10" font-weight="bold" fill="#90cdf4">M.In</text>
  <text x="270" y="215" text-anchor="middle" font-size="10" font-weight="bold" fill="#fbb6ce">Fem</text>
  <text x="330" y="215" text-anchor="middle" font-size="10" font-weight="bold" fill="#9ae6b4">Neut</text>

  <!-- Singular rows -->
  <text x="55" y="245" font-size="12" font-weight="bold" fill="#e2e8f0">Nom</text>
  <text x="150" y="245" text-anchor="middle" font-size="14" fill="#81e6d9">-í</text>
  <text x="210" y="245" text-anchor="middle" font-size="14" fill="#81e6d9">-í</text>
  <text x="270" y="245" text-anchor="middle" font-size="14" fill="#81e6d9">-í</text>
  <text x="330" y="245" text-anchor="middle" font-size="14" fill="#81e6d9">-í</text>

  <rect x="50" y="255" width="330" height="25" rx="4" fill="#3d4a5c"/>
  <text x="55" y="273" font-size="12" font-weight="bold" fill="#e2e8f0">Gen</text>
  <text x="150" y="273" text-anchor="middle" font-size="14" fill="#90cdf4">-ího</text>
  <text x="210" y="273" text-anchor="middle" font-size="14" fill="#90cdf4">-ího</text>
  <text x="270" y="273" text-anchor="middle" font-size="14" fill="#81e6d9">-í</text>
  <text x="330" y="273" text-anchor="middle" font-size="14" fill="#90cdf4">-ího</text>

  <text x="55" y="303" font-size="12" font-weight="bold" fill="#e2e8f0">Dat</text>
  <text x="150" y="303" text-anchor="middle" font-size="14" fill="#90cdf4">-ímu</text>
  <text x="210" y="303" text-anchor="middle" font-size="14" fill="#90cdf4">-ímu</text>
  <text x="270" y="303" text-anchor="middle" font-size="14" fill="#81e6d9">-í</text>
  <text x="330" y="303" text-anchor="middle" font-size="14" fill="#90cdf4">-ímu</text>

  <rect x="50" y="313" width="330" height="25" rx="4" fill="#3d4a5c"/>
  <text x="55" y="331" font-size="12" font-weight="bold" fill="#e2e8f0">Acc</text>
  <text x="150" y="331" text-anchor="middle" font-size="14" fill="#90cdf4">-ího</text>
  <text x="210" y="331" text-anchor="middle" font-size="14" fill="#81e6d9">-í</text>
  <text x="270" y="331" text-anchor="middle" font-size="14" fill="#81e6d9">-í</text>
  <text x="330" y="331" text-anchor="middle" font-size="14" fill="#81e6d9">-í</text>

  <text x="55" y="361" font-size="12" font-weight="bold" fill="#e2e8f0">Voc</text>
  <text x="150" y="361" text-anchor="middle" font-size="14" fill="#81e6d9">-í</text>
  <text x="210" y="361" text-anchor="middle" font-size="14" fill="#81e6d9">-í</text>
  <text x="270" y="361" text-anchor="middle" font-size="14" fill="#81e6d9">-í</text>
  <text x="330" y="361" text-anchor="middle" font-size="14" fill="#81e6d9">-í</text>

  <rect x="50" y="371" width="330" height="25" rx="4" fill="#3d4a5c"/>
  <text x="55" y="389" font-size="12" font-weight="bold" fill="#e2e8f0">Loc</text>
  <text x="150" y="389" text-anchor="middle" font-size="14" fill="#90cdf4">-ím</text>
  <text x="210" y="389" text-anchor="middle" font-size="14" fill="#90cdf4">-ím</text>
  <text x="270" y="389" text-anchor="middle" font-size="14" fill="#81e6d9">-í</text>
  <text x="330" y="389" text-anchor="middle" font-size="14" fill="#90cdf4">-ím</text>

  <text x="55" y="419" font-size="12" font-weight="bold" fill="#e2e8f0">Instr</text>
  <text x="150" y="419" text-anchor="middle" font-size="14" fill="#90cdf4">-ím</text>
  <text x="210" y="419" text-anchor="middle" font-size="14" fill="#90cdf4">-ím</text>
  <text x="270" y="419" text-anchor="middle" font-size="14" fill="#81e6d9">-í</text>
  <text x="330" y="419" text-anchor="middle" font-size="14" fill="#90cdf4">-ím</text>

  <!-- Singular note -->
  <rect x="50" y="435" width="330" height="35" rx="6" fill="#234e52"/>
  <text x="215" y="458" text-anchor="middle" font-size="11" fill="#81e6d9">Feminine stays -í in most cases!</text>

  <!-- PLURAL -->
  <rect x="410" y="150" width="350" height="330" rx="12" fill="#2d3748" filter="url(#shadow)"/>
  <rect x="410" y="150" width="350" height="40" rx="12" fill="url(#headerGrad)"/>
  <rect x="410" y="175" width="350" height="15" fill="url(#headerGrad)"/>
  <text x="585" y="178" text-anchor="middle" font-size="15" font-weight="bold" fill="white">PLURAL</text>

  <!-- Plural - super simple! -->
  <text x="440" y="215" font-size="11" font-weight="bold" fill="#a0aec0">CASE</text>
  <text x="620" y="215" text-anchor="middle" font-size="11" font-weight="bold" fill="#81e6d9">ALL GENDERS</text>

  <text x="425" y="250" font-size="12" font-weight="bold" fill="#e2e8f0">Nom</text>
  <text x="620" y="250" text-anchor="middle" font-size="18" fill="#81e6d9">-í</text>

  <rect x="420" y="265" width="330" height="30" rx="4" fill="#3d4a5c"/>
  <text x="425" y="285" font-size="12" font-weight="bold" fill="#e2e8f0">Gen</text>
  <text x="620" y="285" text-anchor="middle" font-size="18" fill="#81e6d9">-ích</text>

  <text x="425" y="320" font-size="12" font-weight="bold" fill="#e2e8f0">Dat</text>
  <text x="620" y="320" text-anchor="middle" font-size="18" fill="#81e6d9">-ím</text>

  <rect x="420" y="335" width="330" height="30" rx="4" fill="#3d4a5c"/>
  <text x="425" y="355" font-size="12" font-weight="bold" fill="#e2e8f0">Acc</text>
  <text x="620" y="355" text-anchor="middle" font-size="18" fill="#81e6d9">-í</text>

  <text x="425" y="390" font-size="12" font-weight="bold" fill="#e2e8f0">Voc</text>
  <text x="620" y="390" text-anchor="middle" font-size="18" fill="#81e6d9">-í</text>

  <rect x="420" y="405" width="330" height="30" rx="4" fill="#3d4a5c"/>
  <text x="425" y="425" font-size="12" font-weight="bold" fill="#e2e8f0">Loc</text>
  <text x="620" y="425" text-anchor="middle" font-size="18" fill="#81e6d9">-ích</text>

  <text x="425" y="460" font-size="12" font-weight="bold" fill="#e2e8f0">Instr</text>
  <text x="620" y="460" text-anchor="middle" font-size="18" fill="#81e6d9">-ími</text>

  <!-- Examples box at bottom -->
  <rect x="40" y="490" width="720" height="30" rx="8" fill="#2c5282"/>
  <text x="400" y="510" text-anchor="middle" font-size="12" fill="#bee3f8">jarní den, jarní noc, jarní ráno • v jarním počasí • s jarními květinami</text>
</svg>